<svg id="Layer_1" data-name="Layer 1" xmlns="http://www.w3.org/2000/svg" viewBox="0 0 468 468">
    <circle cx="234" cy="234" r="234" style="fill: #fff"/>
    <g>
        <path d="M244.81,317.12H175.26c-2.55,0-2.55,0-2.55-2.56,0-27.5,0-55,0-82.49,0-9.68.43-19.27,3.72-28.47,9.22-25.72,27-42.44,53.83-47.77,30.42-6,55.27,4.35,73.69,29.25,8.92,12.06,12.92,26,13,41,.09,29.62,0,59.24.07,88.86,0,1.73-.48,2.24-2.21,2.23q-35-.08-69.94,0Zm-12-119.66A16.55,16.55,0,0,0,228,185.84c-6.2-6.46-14.19-6.05-19.64,1a89.64,89.64,0,0,0-12.67,22.43c-6.47,16.82-7.46,34.32-5.88,52,.76,8.47,8.23,13.55,17.36,12.51,7.76-.88,12.18-7,11.67-15.5a187.93,187.93,0,0,1-.31-19.28c.51-11.91,3.8-23,11.27-32.55A14,14,0,0,0,232.84,197.46Z"
              transform="translate(-10 -7.89)" style="fill: #ff114a"/>
        <path d="M244.65,345.77H124.13c-2.79,0-2.79,0-2.79-2.73s0-5.5,0-8.25A12.42,12.42,0,0,1,134,322.06c11.37-.06,22.74,0,34.12,0H352.75a30.31,30.31,0,0,1,5.23.25,12.18,12.18,0,0,1,10.27,11.87c.11,3.31,0,6.63.05,9.94,0,1.21-.42,1.71-1.63,1.67s-2.62,0-3.93,0Z"
              transform="translate(-10 -7.89)" style="fill: #ff114a"/>
        <path d="M347.38,130.57c-.86,1.59-1.42,3.49-2.64,4.73-10.33,10.51-20.77,20.92-31.21,31.32-3.09,3.08-7.54,3.17-10.39.31s-2.73-7.23.4-10.36q15.52-15.62,31.11-31.14a7.09,7.09,0,0,1,8.09-1.67,6.92,6.92,0,0,1,4.17,6.55Z"
              transform="translate(-10 -7.89)" style="fill: #ff114a"/>
        <path d="M188.49,162a6.65,6.65,0,0,1-4.1,6.38,6.8,6.8,0,0,1-7.69-1.16c-1.23-1.05-2.34-2.26-3.48-3.41-9.27-9.27-18.57-18.52-27.76-27.88a10.33,10.33,0,0,1-2.6-4.59,6.7,6.7,0,0,1,3.61-7.36,7.09,7.09,0,0,1,8.44,1.42c4.54,4.48,9,9,13.53,13.5q8.67,8.69,17.36,17.35A7.57,7.57,0,0,1,188.49,162Z"
              transform="translate(-10 -7.89)" style="fill: #ff114a"/>
        <path d="M132.68,232.39c-7.44,0-14.87,0-22.3,0a7,7,0,0,1-6.66-4.6,6.81,6.81,0,0,1,2.24-7.91,8.62,8.62,0,0,1,4.46-1.57c14.93-.11,29.86-.09,44.78-.05a6.89,6.89,0,0,1,7.05,7.18,7,7,0,0,1-7.09,7c-7.49,0-15,0-22.48,0Z"
              transform="translate(-10 -7.89)" style="fill: #ff114a"/>
        <path d="M356.94,232.39q-11,0-21.93,0c-4.46,0-7.59-2.86-7.65-7s3-7.18,7.62-7.18q21.93,0,43.85,0c4.39,0,7.53,3,7.49,7.15s-3.13,7-7.46,7C371.55,232.41,364.25,232.39,356.94,232.39Z"
              transform="translate(-10 -7.89)" style="fill: #ff114a"/>
        <path d="M251.89,113.25c0,7.43.06,14.87,0,22.3a7,7,0,0,1-9.07,6.91,6.87,6.87,0,0,1-5.05-6.86c-.06-4.12,0-8.25,0-12.37q0-15.93,0-31.86c0-2.92,1-5.26,3.66-6.69a6.78,6.78,0,0,1,7.13.16,7,7,0,0,1,3.38,6.48C251.87,98.63,251.89,105.94,251.89,113.25Z"
              transform="translate(-10 -7.89)" style="fill: #ff114a"/>
    </g>
</svg>
