<?xml version="1.0" encoding="utf-8"?>
<!-- Generator: Adobe Illustrator 24.1.2, SVG Export Plug-In . SVG Version: 6.00 Build 0)  -->
<svg xmlns:xlink="http://www.w3.org/1999/xlink" version="1.1" id="_x31__x2C_5" xmlns="http://www.w3.org/2000/svg"
     x="0px"
     y="0px" viewBox="0 0 512 512" style="enable-background:new 0 0 512 512;" xml:space="preserve">
<style type="text/css">
	.st0{fill:#707070;}
</style>
    <path class="st0" d="M377.5,472h-243c-22.3,0-40.5-18.2-40.5-40.5v-189c0-22.3,18.2-40.5,40.5-40.5h243c22.3,0,40.5,18.2,40.5,40.5
	v189C418,453.8,399.8,472,377.5,472z M134.5,229c-7.4,0-13.5,6-13.5,13.5v189c0,7.5,6.1,13.5,13.5,13.5h243c7.4,0,13.5-6,13.5-13.5
	v-189c0-7.5-6.1-13.5-13.5-13.5H134.5z"/>
    <path class="st0" d="M350.5,229c-7.5,0-13.5-6-13.5-13.5V148c0-44.7-36.3-81-81-81s-81,36.3-81,81v67.5c0,7.5-6,13.5-13.5,13.5
	s-13.5-6-13.5-13.5V148c0-59.6,48.4-108,108-108s108,48.4,108,108v67.5C364,223,358,229,350.5,229z"/>
    <path class="st0" d="M256,346c-19.9,0-36-16.1-36-36s16.1-36,36-36s36,16.1,36,36C292,329.9,275.9,346,256,346z M256,301
	c-4.9,0-9,4-9,9c0,5,4.1,9,9,9c5,0,9-4,9-9C265,305,261,301,256,301z"/>
    <path class="st0" d="M256,400c-7.5,0-13.5-6-13.5-13.5V337c0-7.5,6-13.5,13.5-13.5c7.5,0,13.5,6,13.5,13.5v49.5
	C269.5,394,263.5,400,256,400z"/>
</svg>
