<?xml version="1.0" encoding="utf-8"?>
<!-- Generator: Adobe Illustrator 24.1.2, SVG Export Plug-In . SVG Version: 6.00 Build 0)  -->
<svg xmlns:xlink="http://www.w3.org/1999/xlink" version="1.1" id="Capa_1" xmlns="http://www.w3.org/2000/svg" x="0px"
	 y="0px"
	 viewBox="0 0 512 512" style="enable-background:new 0 0 512 512;" xml:space="preserve">
<style type="text/css">
	.st0{fill:#707070;}
</style>
	<g>
	<g>
		<path class="st0" d="M408.7,319.3c-23.5-23.5-51.5-40.9-82.1-51.5c32.7-22.5,54.2-60.3,54.2-102.9C380.9,96,324.9,40,256,40
			S131.1,96,131.1,164.9c0,42.6,21.5,80.4,54.2,102.9c-30.6,10.5-58.6,28-82.1,51.5C62.5,360.1,40,414.3,40,472h33.8
			c0-100.5,81.8-182.3,182.3-182.3S438.3,371.5,438.3,472H472C472,414.3,449.5,360.1,408.7,319.3z M256,256
			c-50.2,0-91.1-40.9-91.1-91.1s40.9-91.1,91.1-91.1s91.1,40.9,91.1,91.1S306.2,256,256,256z"/>
	</g>
</g>
</svg>
